PathFileType	4	(X/Y/Z)	Walk1_0-155.trc
DataRate	CameraRate	NumFrames	NumMarkers	Units	OrigDataRate	OrigDataStartFrame	OrigNumFrames
30	30	8	22	m	30	38	155
Frame#	Time	Hip			RHip			RKnee			RAnkle			RBigToe			RSmallToe			RHeel			LHip			LKnee			LAnkle			LBigToe			LSmallToe			LHeel			Neck			Head			Nose			RShoulder			RElbow			RWrist			LShoulder			LElbow			LWrist		
		X1	Y1	Z1	X2	Y2	Z2	X3	Y3	Z3	X4	Y4	Z4	X5	Y5	Z5	X6	Y6	Z6	X7	Y7	Z7	X8	Y8	Z8	X9	Y9	Z9	X10	Y10	Z10	X11	Y11	Z11	X12	Y12	Z12	X13	Y13	Z13	X14	Y14	Z14	X15	Y15	Z15	X16	Y16	Z16	X17	Y17	Z17	X18	Y18	Z18	X19	Y19	Z19	X20	Y20	Z20	X21	Y21	Z21	X22	Y22	Z22
39	1.3	-2.115581612091494	0.8484951687393014	0.3742609203264748	-2.0712265614965255	0.8321705649488708	0.46848741418416817	-1.9828541608292718	0.46934859203344165	0.461908138266675	-2.013683879607013	0.08666670745177203	0.43829782731206496	-1.8324901462350482	0.00989914315535501	0.4281223953926887	-1.8305551684319528	0.009233466276483377	0.5096681720180558	-2.0612765898178584	0.009213422543466233	0.4296455054946207	-2.1511624861740537	0.819916404559045	0.27919190420056034	-2.1033650244489093	0.44272234113988784	0.27856909088932996	-2.427351780839214	0.15652097682098148	0.29647931766486557	-2.344133372004885	-0.027839095987086167	0.28809675250061345	-2.404059899125546	-0.021127066732410053	0.25050087731634274	-2.5043582949277687	0.12498598227622947	0.3000549066909048	-2.1280918726367	1.522421211391162	0.33972883076174365	-2.0714108867532244	1.7655022066579569	0.3600876669482973	-1.9799043206439764	1.6487287720211736	0.3426301655223105	-2.1332940166414986	1.3830055826500396	0.5617271925435824	-2.147543692040632	1.0939045749348708	0.6062117637503823	-2.130819275672837	0.8470099425962948	0.6368205561364898	-2.194677895829127	1.416638073000732	0.14087438035358976	-2.1706719641885943	1.103720610577045	0.09946222361157056	-2.0898261381582697	0.8316999729769189	0.1293736517039362
40	1.3333333333333333	-2.0924629815166513	0.8530112288961661	0.3745332889546292	-2.056568608543052	0.836615888682642	0.46726976548535076	-1.9752280348491864	0.46621980444646494	0.4644084086785813	-2.0107868354959963	0.08738558973481508	0.44223388752764814	-1.825230568099999	0.01116659651522305	0.4300567500834674	-1.8295122899388006	0.009135544798487934	0.5098499125888889	-2.055716555381388	0.013513016211296856	0.4328735257960739	-2.118764048412333	0.8264307293504558	0.27852881511376404	-2.0306916117314397	0.46170412486753026	0.27783127999976515	-2.358461797896443	0.21398637141309548	0.2832220030472006	-2.308001552747243	-0.029034365170312246	0.29134162089263144	-2.3569802681509793	-0.015819571344660582	0.24609912441746087	-2.4303387095537556	0.1965109185123182	0.28243973437814024	-2.1038077412838017	1.5298589670802827	0.34525731440412616	-2.0464502356464096	1.7726352014148898	0.36260894566306656	-1.9521320690913386	1.6569252848911675	0.34677880375990994	-2.1271167958620376	1.4141431370411321	0.5262120054307992	-2.102300294135271	1.0964349315249298	0.6114572836729679	-2.0710112381120824	0.8495265521297989	0.636595426645603	-2.1711494988786844	1.4231869234004382	0.14502594973329422	-2.1491404475806983	1.11121628496619	0.1028234165123059	-2.0643436366065537	0.8540744742778957	0.11983530151168982
41	1.3666666666666667	-2.062005767286613	0.8541782865289221	0.37677952990789537	-2.036376534314877	0.8338364813763949	0.47126673867788904	-1.9951949348102795	0.4840428971945708	0.4318538508907787	-2.0470940490594622	0.08174781828825714	0.4502678773471853	-1.831833351372643	0.010378975580370684	0.43222083474829504	-1.8437520857923055	0.004183001227435014	0.5119919067101852	-2.057845262115124	0.015345455959307717	0.43519854143679076	-2.0791844632813685	0.831647393656668	0.2812056000680705	-1.9666039359988674	0.477197742410566	0.2766908471285368	-2.2972688591341357	0.19192791223894054	0.30899479723663936	-2.2516382440080056	-0.03338721865571556	0.2960004290203031	-2.2914983623757434	-0.00902115018274607	0.24569404565503636	-2.359719353524087	0.22067480239375303	0.2882724704491455	-2.0792480873877905	1.5353244798028822	0.3488288204466	-2.027019877536785	1.7771182376111974	0.36575698914398735	-1.9310189169422722	1.6612633653799413	0.35549504005533017	-2.101336789768305	1.4194542200268794	0.529921638508395	-2.059799402168756	1.102115538895103	0.6176041471906623	-2.0181381948263053	0.852096858374647	0.6417562489895436	-2.144223088147861	1.430750390634791	0.15141984743923198	-2.097995400491432	1.1049037752831066	0.13919978437643743	-2.048578560312037	0.8498257585832842	0.13731547756681353
42	1.4	-2.0380628240365515	0.8530278576243073	0.3790757542378792	-2.0167208824052976	0.8339293256342253	0.476151699877828	-1.9947485464099772	0.4778470346293496	0.4385241388469131	-2.05059721405883	0.07701434813430125	0.44947987656548555	-1.812702664854094	0.004925717098377645	0.4467883622674431	-1.8776141022548256	-0.0029339758055893944	0.48772079142244357	-2.0495543130925604	0.01778938879514943	0.43621062785107023	-2.054467748412352	0.8335825582983332	0.2819351343577947	-1.8973669632564565	0.494653176354938	0.2763517391036645	-2.2261461342318514	0.20729064108182088	0.3078338908896838	-2.166211323987903	-0.0070505033040787505	0.3042496112331495	-2.1914397491779893	0.02117593497850474	0.24575302173372382	-2.2737380318638425	0.21998603132753308	0.29750820373411824	-2.049471679191739	1.5420552793557372	0.35486272242706995	-1.9928510782160487	1.7840973402271567	0.37307980536994906	-1.9033722430648208	1.6620459846602893	0.36536336692310467	-2.07221481863538	1.42768877918659	0.5394371924783555	-2.0200044556711423	1.1074137649131002	0.6251253350134132	-1.9546581030758985	0.8596229273580456	0.6467896112334922	-2.119032392905756	1.436305087627354	0.15075357912330445	-2.0973457576400243	1.1207024905423377	0.11861265622078496	-2.0233084752146167	0.8630189114894967	0.1259758064929577
43	1.4333333333333333	-2.0096439740574095	0.8551420199499414	0.3850021258544838	-1.9988258885340973	0.8322120302125007	0.4835078502850236	-1.9951386771521336	0.4724665518370808	0.4454627877264445	-2.054638215522522	0.0807355308247978	0.4514423568608885	-1.842139829173984	0.0034570816723595893	0.4320315616071764	-1.8783138658563403	-0.007627309892523717	0.4896194192701834	-2.055265238345842	0.01910175027986286	0.44281308504694583	-2.0192115161754733	0.8384468553221142	0.2854441823306716	-1.8328063346866363	0.5129676773375121	0.2801146177921925	-2.1375100404177854	0.21221269916765306	0.31254138900478484	-2.04324562890065	0.010562872272766878	0.3103426944363829	-2.0847597003125533	0.03230573699341619	0.25577595247925716	-2.2064980198965762	0.17797563852752826	0.31771154524085315	-2.0220322090089966	1.546755699465739	0.3559315218066906	-1.9630805786719991	1.7998601896802857	0.35556008763755603	-1.8747662679089643	1.656278195648594	0.362115753503009	-2.044992229684595	1.4321234994435508	0.5456528387789	-1.9800432403983632	1.1085060623393546	0.6298983173619774	-1.8922632357129308	0.8658695689713704	0.6527747490561607	-2.0908727984086295	1.436773446972861	0.15524247974401584	-2.0663925432668955	1.1211718028430673	0.12867970482286917	-2.002697138391789	0.8662610246814451	0.12614121105515702
44	1.4666666666666666	-1.981942814354112	0.8613321644399029	0.38465117068217924	-1.982434936431155	0.8362830183841895	0.48147243458044175	-1.989592310226033	0.4743522794607538	0.4517158165026255	-2.010362457196164	0.09996280288369838	0.45082470855212625	-1.8566572605042353	0.003761767316826374	0.42844861678436774	-1.8969763793449672	-0.007943589385439606	0.4840594519152762	-2.0522930270568502	0.025025195378679234	0.45200927890888704	-1.9816044202623309	0.8492071245240758	0.2820685475793073	-1.7809354664145347	0.5340842945743742	0.2850169629627195	-2.044177322618996	0.21255451431167935	0.31455584612548254	-1.924491210291486	0.015010480370427116	0.3168869032677641	-1.9687972475897677	0.028698246490841833	0.2600542368902718	-2.1091868689683904	0.16352311509591697	0.3230607550121884	-1.9915581711393537	1.5493150131022908	0.3556019619607663	-1.926005015755796	1.7952213920699136	0.386004723884042	-1.8494440797754603	1.6596230615784868	0.36811488101900924	-2.020754180611456	1.4365298685052164	0.5444388434828712	-1.9391882978784332	1.1181066734612528	0.6315625693146425	-1.834303012483853	0.8761151459069009	0.6566437109284112	-2.062504908913837	1.4366880599169962	0.15417307626918517	-2.0429547307718225	1.105219645596394	0.1660015007168717	-1.9814474761153795	0.8698314859380899	0.12999562499735876
45	1.5	-1.9554265863930398	0.8626667751583211	0.3927469025129194	-1.9574841963492917	0.842861391488445	0.489082736633794	-1.9840675487379238	0.4764400435182019	0.46175104598657174	-2.008260978966208	0.0939672783567725	0.4521803316048623	-1.8528835012782632	-0.0030981215438884327	0.4335658660703907	-1.8927989664331009	-0.00933121897904269	0.48471040834737283	-2.039352574477012	0.021165071392176948	0.46000479385767534	-1.949980345715956	0.8572018309034621	0.28985111198911195	-1.7350521871019333	0.5469579119152097	0.28932884064925646	-1.9579979117386925	0.19126202766926792	0.3118622283187486	-1.8038552780325225	0.015212212904755657	0.3101959619106106	-1.8463837450512592	0.02561338622881888	0.2595787204872413	-2.0273203816470327	0.10230512868575176	0.3263052065221881	-1.9629938186005238	1.5528430748684783	0.36117380489475825	-1.9070402976997098	1.795439182050247	0.37840348725578293	-1.818186597754789	1.6604156166947959	0.36659762465843937	-1.9872313334736353	1.4392593889412577	0.5472185215293169	-1.8989716076855572	1.1250310735494617	0.6330882209277373	-1.7782235461048814	0.8911259808381173	0.6593947390559141	-2.0364875413596235	1.4370654634726014	0.15826597308445556	-2.0245186429346016	1.1290251501257365	0.12458702674217473	-1.957214492218606	0.8681099820646356	0.13617795090480217
46	1.5333333333333334	-1.9279164064842422	0.8628924695495411	0.3931169478810268	-1.936783064139367	0.8412845758168614	0.4913881880921188	-1.9818637558665606	0.4732138441382613	0.4614638322352539	-2.0135473606784053	0.0759976676111157	0.4437820417954117	-1.861464629957133	-0.024307179709162408	0.46422461665403586	-1.8928133717286124	-0.017419800092853283	0.4897042579425885	-2.040100268044738	0.0035829731147292423	0.4498353619131126	-1.9141115453705573	0.8619779816234027	0.2968875126917431	-1.6997481693530427	0.5517770858490053	0.285845712704442	-1.8617004961236299	0.14581032963358642	0.3150440130919063	-1.6768999750818983	0.016940392479999445	0.3120364485953454	-1.7219293798974287	0.019318591279224487	0.26191920177849604	-1.9267270603773907	0.06702688172488105	0.3270433276255049	-1.9337409018561653	1.5537240041552502	0.363237557805476	-1.8888650853030662	1.7966383107806476	0.36538294534721627	-1.789296357095372	1.6583175901339844	0.36725236521338017	-1.9566314708784465	1.4424510644059856	0.5495568254853157	-1.8601822469426588	1.1280189639589597	0.6354725193941276	-1.7205812894166204	0.8967873291254169	0.6542822825840365	-2.004755944263028	1.4395936570887273	0.1595595140737763	-2.0014993040218734	1.1310593133166364	0.12099157121308712	-1.9337328370427866	0.8600846372257599	0.13577089497647873
